<svg xmlns="http://www.w3.org/2000/svg" width="1200" height="760" viewBox="0 0 1200 760" fill="none">
  <defs>
    <linearGradient id="bg" x1="0" y1="0" x2="1200" y2="760" gradientUnits="userSpaceOnUse">
      <stop stop-color="#0A1328"/>
      <stop offset="1" stop-color="#101C37"/>
    </linearGradient>
    <linearGradient id="accent" x1="0" y1="0" x2="1" y2="1">
      <stop stop-color="#FFE156"/>
      <stop offset="1" stop-color="#FFD96A"/>
    </linearGradient>
    <filter id="shadow" x="120" y="74" width="960" height="620" filterUnits="userSpaceOnUse" color-interpolation-filters="sRGB">
      <feDropShadow dx="0" dy="20" stdDeviation="18" flood-color="#000" flood-opacity="0.35"/>
    </filter>
  </defs>
  <rect width="1200" height="760" fill="url(#bg)"/>
  <g opacity="0.22">
    <circle cx="1040" cy="120" r="180" fill="#EF63C4"/>
    <circle cx="170" cy="120" r="140" fill="#4CF59D"/>
  </g>

  <g filter="url(#shadow)">
    <rect x="160" y="110" width="880" height="560" rx="20" fill="#0D1A36" stroke="#C4DAFF" stroke-opacity="0.28"/>
  </g>

  <text x="210" y="165" fill="#FFE156" font-family="IBM Plex Mono, monospace" font-size="18" letter-spacing="1.4">ALLOCATION MEMO (REDACTED)</text>
  <text x="210" y="210" fill="#F4FAFF" font-family="Sora, sans-serif" font-size="36" font-weight="700">Decision Snapshot</text>

  <rect x="210" y="240" width="820" height="1" fill="#C4DAFF" fill-opacity="0.24"/>

  <text x="220" y="290" fill="#D6E3F7" font-family="Space Grotesk, sans-serif" font-size="20">Greenlight 3</text>
  <rect x="470" y="268" width="540" height="30" rx="8" fill="#132449"/>
  <rect x="485" y="277" width="210" height="12" rx="6" fill="#2A3E66"/>
  <rect x="705" y="277" width="150" height="12" rx="6" fill="#2A3E66"/>

  <text x="220" y="360" fill="#D6E3F7" font-family="Space Grotesk, sans-serif" font-size="20">Do-Not-Shoot Index (5)</text>
  <rect x="470" y="338" width="540" height="30" rx="8" fill="#132449"/>
  <rect x="485" y="347" width="260" height="12" rx="6" fill="#2A3E66"/>
  <rect x="755" y="347" width="130" height="12" rx="6" fill="#2A3E66"/>

  <text x="220" y="430" fill="#D6E3F7" font-family="Space Grotesk, sans-serif" font-size="20">Constraints</text>
  <rect x="470" y="408" width="540" height="30" rx="8" fill="#132449"/>
  <rect x="485" y="417" width="300" height="12" rx="6" fill="#2A3E66"/>

  <text x="220" y="500" fill="#D6E3F7" font-family="Space Grotesk, sans-serif" font-size="20">Failure Tree</text>
  <rect x="470" y="478" width="540" height="30" rx="8" fill="#132449"/>
  <rect x="485" y="487" width="195" height="12" rx="6" fill="#2A3E66"/>
  <rect x="690" y="487" width="130" height="12" rx="6" fill="#2A3E66"/>

  <rect x="210" y="548" width="820" height="82" rx="14" fill="#122347" stroke="#2D4570"/>
  <text x="235" y="583" fill="#FFE156" font-family="Space Grotesk, sans-serif" font-size="18" font-weight="700">Receipts Appendix</text>
  <text x="235" y="611" fill="#B1C4E2" font-family="Space Grotesk, sans-serif" font-size="16">Momentum / Decay / Reception evidence linked to each decision.</text>

  <rect x="885" y="570" width="125" height="38" rx="10" fill="url(#accent)"/>
  <text x="917" y="594" fill="#09122B" font-family="Sora, sans-serif" font-size="15" font-weight="700">REDACTED</text>
</svg>
