<svg width="27" height="41" viewBox="0 0 27 41" fill="none" xmlns="http://www.w3.org/2000/svg">
<path d="M6.79255 3.02002C8.46855 2.32502 9.83954 1.36203 9.83954 0.879028C9.83954 0.395028 11.3235 0 13.1365 0C15.6375 0 17.3066 0.906 20.0476 3.75C25.6666 9.58 27.0796 14.021 26.3986 23.707C25.5446 35.872 24.6276 37.582 17.6256 40.061C14.5696 41.143 13.4786 41.145 11.4746 40.072C9.06155 38.781 6.54056 34.082 5.38556 28.72C5.05656 27.192 3.63057 24.942 2.21857 23.72C-0.175428 21.65 -0.304443 21.098 0.315557 15.564C1.15656 8.06003 2.93355 4.61802 6.79255 3.02002Z" fill="#FD73C5"/>
</svg>
