<svg width="162" height="114" viewBox="0 0 162 114" fill="none" xmlns="http://www.w3.org/2000/svg">
<path fill-rule="evenodd" clip-rule="evenodd" d="M7.17242 47.2349L28.7288 43.4997C31.9026 39.5869 35.7925 35.9151 41.1091 32.1372L38.1175 18.2408C37.9254 16.858 38.9795 15.1618 40.7556 14.2944L43.242 13.08L45.7285 11.8657C48.0402 11.032 50.0025 10.9596 51.6153 11.6486L67.3944 19.2996C73.4445 17.5261 79.8555 16.167 85.9171 15.5693L99.171 2.30346C100.05 0.987978 102.362 0.154282 104.505 0.289104C105.836 0.240029 107.086 0.366031 108.254 0.483754C108.809 0.539619 109.345 0.593621 109.862 0.626163C111.469 0.72728 112.907 1.7969 113.099 3.1798L113.598 17.7026C118.786 19.0082 123.625 21.0751 127.753 23.489L149.473 18.1973C151.61 17.7443 153.933 18.0863 154.835 19.1222L156.099 20.5725L157.362 22.0228C157.909 23.2323 157.746 24.7886 155.976 26.2439L140.754 38.9942C142.041 42.7959 142.617 46.9446 142.121 51.0259L159.135 57.1879C160.923 57.4962 161.65 58.9128 160.951 60.4355C160.718 61.3505 160.239 62.2499 159.791 63.0903C159.578 63.4891 159.373 63.8746 159.204 64.2422C158.68 65.3842 156.729 66.6322 154.592 67.0853L133.036 70.8205C129.862 74.7333 125.617 78.5786 121.011 82.0095L124.002 95.9059C124.194 97.2887 123.14 98.9849 121.364 99.8523L118.878 101.067L116.391 102.281C114.08 103.115 112.117 103.187 110.505 102.498L94.7255 94.8471C88.6754 96.6206 82.2644 97.9797 76.2028 98.5774L62.9489 111.843C62.0695 113.159 59.7578 113.992 57.615 113.858C56.2842 113.907 55.0338 113.781 53.8656 113.663C53.3112 113.607 52.7753 113.553 52.2581 113.521C50.651 113.419 49.2128 112.35 49.0208 110.967L48.3467 96.8247C43.1587 95.5192 38.3201 93.4523 34.192 91.0384L12.6472 95.9494C10.5102 96.4024 8.18689 96.0604 7.28445 95.0245L6.02104 93.5742L4.75762 92.1239C4.0299 90.7073 4.37358 89.3581 5.78864 88.0763L21.0106 75.326C19.7241 71.5242 19.1481 67.3756 19.6434 63.2943L2.62971 57.1322C0.842141 56.8239 0.114427 55.4074 0.813299 53.8847C1.04637 52.9697 1.52581 52.0702 1.97376 51.2298C2.18633 50.831 2.39181 50.4455 2.56049 50.078C3.08465 48.936 5.03541 47.6879 7.17242 47.2349ZM65.4945 74.1632C77.809 77.57 94.529 72.4641 102.839 62.759C111.15 53.0539 107.904 42.4247 95.5896 39.018C83.275 35.6113 66.5551 40.7171 58.2446 50.4222C49.934 60.1273 53.1799 70.7565 65.4945 74.1632Z" fill="#43AFDE"/>
</svg>
