<svg width="41" height="44" viewBox="0 0 41 44" fill="none" xmlns="http://www.w3.org/2000/svg">
<path fill-rule="evenodd" clip-rule="evenodd" d="M23.0457 0.455824C22.8138 0.735093 22.4983 0.885873 22.3449 0.790958C22.1911 0.696408 21.322 1.27283 20.413 2.07267C19.504 2.87251 18.5801 3.52707 18.3599 3.52707C18.1393 3.52707 17.9592 3.69134 17.9592 3.89212C17.9592 4.09291 18.106 4.25718 18.2853 4.25718C18.4646 4.25718 18.7093 4.51199 18.8291 4.82375C18.9485 5.13551 18.9011 5.30051 18.7236 5.19099C18.3719 4.97342 17.7868 6.04122 17.9351 6.63006C17.9855 6.83084 18.0725 7.73436 18.1276 8.63788C18.1831 9.54139 18.3193 10.6092 18.4311 11.0108C18.5424 11.4123 18.6461 12.038 18.6615 12.4013C18.6772 12.7645 18.8368 12.9707 19.0165 12.8598C19.1965 12.7484 19.4375 12.9032 19.5529 13.2033C19.668 13.5034 19.6296 13.7487 19.4671 13.7487C19.305 13.7487 18.9847 14.1594 18.7561 14.6613C18.5271 15.1633 18.09 15.574 17.7843 15.574C17.479 15.574 17.2288 15.8204 17.2288 16.1216C17.2288 16.8363 16.8979 16.8133 16.0426 16.0398C15.6599 15.6937 14.8273 15.2418 14.1926 15.0359C13.5444 14.8256 12.9805 14.362 12.9071 13.9794C12.8267 13.5596 12.9286 13.3913 13.1722 13.5421C13.5823 13.7951 13.3493 12.8145 12.8315 12.1059C12.6847 11.9051 12.5868 10.714 12.6142 9.4589C12.6416 8.2042 12.5569 7.17729 12.4261 7.17729C12.2954 7.17765 11.8845 6.43731 11.5131 5.5327C11.1417 4.62772 10.5505 3.79539 10.1988 3.68259C9.84708 3.57015 9.55455 3.28357 9.54871 3.04628C9.5425 2.80863 9.37855 2.88675 9.18427 3.21932C8.96697 3.59167 8.55138 3.75122 8.10401 3.63404C7.70375 3.52963 7.45504 3.31716 7.55108 3.16201C7.83703 2.69948 6.87656 2.14825 6.09029 2.32311C5.68858 2.41255 4.98995 2.47534 4.5382 2.46293C4.04373 2.44906 3.71651 2.6564 3.71651 2.98349C3.71651 3.28247 3.47586 3.52707 3.18151 3.52707C2.47777 3.52707 1.90878 4.6405 1.53665 6.74579C1.37012 7.68581 0.970935 9.40779 0.649196 10.5723C-0.240791 13.7936 -0.129757 15.9879 0.983366 17.1886C1.4888 17.7337 1.7923 18.3583 1.65755 18.5762C1.52279 18.7942 1.5611 18.8839 1.7426 18.7763C1.92447 18.6686 2.46386 18.7277 2.94118 18.9077C3.7479 19.2122 3.79176 19.3662 3.56351 21.0871C3.37251 22.5265 3.41995 22.8759 3.77638 22.6557C4.02873 22.4995 3.84433 23.0193 3.36629 23.81C1.79557 26.4089 0.484142 29.0976 0.235807 30.2281C-0.127199 31.8808 -0.0599966 33.9678 0.361076 34.1083C0.564492 34.1759 1.13348 34.6044 1.6254 35.06C2.36858 35.7485 2.85207 35.869 4.48743 35.7737C9.71998 35.4689 11.3857 35.1641 11.3857 34.511C11.3857 34.3117 11.5427 34.246 11.7348 34.3646C11.9269 34.4833 12.6252 34.3624 13.2869 34.0963C13.9486 33.8302 14.6954 33.6403 14.9463 33.6743C15.1976 33.7079 15.5672 33.7561 15.768 33.7812C15.9689 33.8064 16.1073 33.9499 16.0751 34.1007C15.9594 34.6472 16.6295 35.8555 17.5579 36.7751C18.8613 38.0659 19.7852 39.2491 19.7852 39.6269C19.7852 40.2701 22.594 42.8964 23.8378 43.4159C26.2759 44.4344 30.7127 43.9923 30.2463 42.7774C30.1342 42.4853 30.1999 42.1495 30.392 42.0308C30.8302 41.76 30.8521 39.2034 30.4201 38.7369C30.2434 38.5463 29.8939 37.733 29.6434 36.9299C29.3928 36.1267 28.9853 35.2232 28.738 34.922C28.2863 34.373 27.4544 31.4354 27.4544 30.391C27.4544 29.9963 27.8013 29.8463 28.6413 29.8769C29.2939 29.901 30.1981 29.8028 30.6498 29.6586C31.282 29.4575 31.4715 29.54 31.4715 30.0157C31.4715 30.5348 31.7107 30.5965 32.9513 30.3982C34.5513 30.1423 37.2289 28.6343 37.5451 27.8107C37.6565 27.5201 37.9896 27.3975 38.3212 27.5249C38.7656 27.6954 38.8427 27.592 38.648 27.085C38.4315 26.5206 38.4771 26.4918 38.9581 26.8908C39.4277 27.2803 39.4873 27.2675 39.3134 26.8137C39.1849 26.479 39.4631 26.0333 40.0354 25.6587C40.9937 25.0308 41.314 23.4979 40.5814 23.0453C40.3692 22.9142 40.2534 22.5349 40.3236 22.2023C40.4967 21.3835 38.8716 19.9978 38.0046 20.2245C37.6251 20.3237 37.3147 20.5574 37.3147 20.7432C37.3147 20.9294 37.1095 21.0487 36.8582 21.0082C36.0168 20.8728 33.3257 22.0709 32.6654 22.8751C32.2659 23.3618 32.1749 23.3618 31.8492 22.8751C31.6034 22.5075 31.481 22.4776 31.477 22.7839C31.4741 23.035 31.2447 23.2402 30.9676 23.2402C30.6907 23.2402 29.8482 23.9915 29.0956 24.9096C28.3429 25.8277 27.6077 26.4439 27.462 26.2786C27.2254 26.0106 26.4946 23.5958 26.2109 22.145C26.1521 21.8438 25.991 21.3401 25.8526 21.0254C25.4739 20.1627 25.4049 18.5335 25.7474 18.5382C26.5987 18.5499 27.3638 16.9528 27.2583 15.3849C27.1932 14.4229 27.3046 13.7487 27.5285 13.7487C27.7644 13.7487 27.7414 13.5468 27.4675 13.2172C27.225 12.9248 27.1253 12.5254 27.2462 12.3297C27.3675 12.134 27.2991 11.8708 27.095 11.7445C26.4329 11.3353 26.702 9.28732 27.6245 7.71356C28.6701 5.92988 29.2654 3.61286 29.0145 2.30121C28.703 0.672688 24.058 -0.76347 23.0457 0.455824ZM20.2983 1.02825C20.1365 1.28927 20.1979 1.35058 20.459 1.18886C20.6909 1.04576 20.8808 0.856294 20.8808 0.767585C20.8808 0.463126 20.5583 0.607343 20.2983 1.02825ZM8.2468 1.75837C8.08501 2.01939 8.14635 2.08069 8.40746 1.91897C8.63936 1.77587 8.82928 1.58641 8.82928 1.4977C8.82928 1.19324 8.50682 1.33746 8.2468 1.75837ZM7.36849 1.8843C7.36849 1.9847 7.45065 2.06683 7.55108 2.06683C7.65151 2.06683 7.73368 1.9847 7.73368 1.8843C7.73368 1.78391 7.65151 1.70178 7.55108 1.70178C7.45065 1.70178 7.36849 1.78391 7.36849 1.8843ZM38.7755 20.5023C38.7755 20.6026 38.6933 20.6848 38.5929 20.6848C38.4925 20.6848 38.4103 20.6026 38.4103 20.5023C38.4103 20.4019 38.4925 20.3197 38.5929 20.3197C38.6933 20.3197 38.7755 20.4019 38.7755 20.5023ZM28.0022 29.0811C28.1263 29.2819 28.1457 29.4462 28.0453 29.4462C27.9448 29.4462 27.7611 29.2819 27.637 29.0811C27.5128 28.8803 27.4934 28.7161 27.5939 28.7161C27.6943 28.7161 27.878 28.8803 28.0022 29.0811Z" fill="#FFE04A"/>
</svg>
