<svg width="69" height="71" viewBox="0 0 69 71" fill="none" xmlns="http://www.w3.org/2000/svg">
<path fill-rule="evenodd" clip-rule="evenodd" d="M43.6391 0.6595C40.4919 2.43777 36.6005 5.45852 33.1924 8.76867C29.6439 12.2153 29.3035 12.4262 28.3084 11.7969C27.7202 11.4251 26.4517 10.9698 25.4896 10.7848C24.5275 10.5999 22.9531 10.0846 21.991 9.64032C20.1298 8.78067 15.2677 7.90954 12.6878 7.97401C11.8317 7.995 10.4987 8.34084 9.72503 8.74268C8.95134 9.14401 8.11819 9.34845 7.87379 9.19751C7.62939 9.04657 7.307 9.39292 7.15656 9.96718C7.00612 10.5414 6.71225 10.9058 6.50283 10.7764C5.88808 10.3965 4.78557 15.0561 4.84854 17.77C4.88053 19.1444 5.06594 21.1686 5.26036 22.2682C5.45528 23.3677 5.72217 25.3354 5.85411 26.6409C5.98606 27.9468 6.26495 28.9094 6.47336 28.7805C6.68228 28.6516 6.74675 29.1014 6.6168 29.7801C6.46986 30.5488 6.61129 31.0146 6.99213 31.0146C7.3285 31.0146 7.48095 31.3354 7.33001 31.7278C7.17957 32.1201 7.37797 32.7079 7.77081 33.0337C8.16415 33.3601 8.34657 33.8514 8.17714 34.1258C8.00721 34.4002 8.13118 34.787 8.45205 34.9855C9.36467 35.5497 8.3491 37.6264 5.31234 41.4068C2.2351 45.2368 0 49.3816 0 51.2573C0 54.2346 3.28013 56.7261 7.76879 57.1574C9.13124 57.2883 13.1696 57.0464 16.7432 56.6201C25.2627 55.604 26.4222 55.8399 28.8412 59.0836C34.1316 66.1767 40.7449 70.7023 45.3765 70.399L47.6695 70.2485L48.6191 67.4996C49.5892 64.6903 49.7167 63.7732 50.283 55.5046C50.5424 51.7186 50.8152 50.5286 51.6304 49.632C52.1926 49.0137 52.9069 48.5074 53.2172 48.5074C54.5077 48.5074 59.4207 45.6536 62.0766 43.361C67.2565 38.8904 69.781 33.8064 68.7869 29.846C68.453 28.5166 64.1807 26.0166 62.2425 26.0166C61.6728 26.0166 60.4238 25.4988 59.4667 24.8661C58.0388 23.922 54.5907 22.622 51.1041 21.7129C50.6328 21.5899 50.4924 19.4873 50.5308 13.1624C50.5723 6.49011 50.4189 4.39597 49.7821 2.91907C48.5876 0.149206 46.1371 -0.752423 43.6391 0.6595Z" fill="#16E912"/>
</svg>
